<?xml version="1.0" standalone="no"?>
<!DOCTYPE svg PUBLIC "-//W3C//DTD SVG 20010904//EN"
 "http://www.w3.org/TR/2001/REC-SVG-20010904/DTD/svg10.dtd">
<svg version="1.0" xmlns="http://www.w3.org/2000/svg"
 width="95.000000pt" height="95.000000pt" viewBox="0 0 95.000000 95.000000"
 preserveAspectRatio="xMidYMid meet">
<metadata>
Created by potrace 1.14, written by Peter Selinger 2001-2017
</metadata>
<g transform="translate(0.000000,95.000000) scale(0.100000,-0.100000)"
fill="#000000" stroke="none">
<path d="M370 870 c-13 -44 -27 -80 -31 -80 -11 0 -12 -3 7 59 16 54 12 93 -7
74 -5 -5 -23 -59 -40 -119 -17 -60 -37 -119 -45 -131 -9 -14 -35 -28 -72 -38
-145 -40 -132 -53 48 -50 133 3 142 4 174 28 29 22 37 40 61 126 16 56 26 104
22 107 -11 12 -24 -6 -37 -51 -7 -24 -16 -43 -20 -40 -4 3 1 35 11 72 23 81
23 83 4 83 -13 0 -20 -17 -41 -102 -3 -16 -10 -28 -15 -28 -12 0 -12 -1 11 82
24 86 24 88 6 88 -8 0 -22 -30 -36 -80z"/>
<path d="M519 848 c62 -214 64 -218 116 -243 26 -12 58 -15 130 -13 105 3 131
20 45 29 -74 8 -47 15 63 18 32 1 47 5 47 14 0 10 -17 14 -62 15 -88 1 -90 1
-84 10 3 4 39 7 80 7 78 -2 103 5 92 23 -3 6 -38 9 -81 8 -41 -1 -81 1 -88 6
-7 5 -1 8 18 9 30 1 79 5 103 7 8 1 12 8 10 14 -3 9 -41 13 -134 13 -79 1
-137 6 -151 13 -12 7 -38 39 -58 72 -50 82 -70 81 -46 -2z"/>
<path d="M490 560 c-8 -19 -22 -32 -39 -36 -55 -12 -56 -13 -26 -44 23 -24 26
-34 21 -63 -8 -43 -1 -49 38 -30 30 14 36 14 63 -1 37 -19 42 -15 36 32 -4 29
0 41 16 56 30 27 26 44 -11 48 -23 2 -36 11 -48 32 -22 41 -35 42 -50 6z"/>
<path d="M803 510 c-156 -111 -160 -128 -78 -324 12 -27 19 -36 27 -28 8 8 6
22 -5 51 -9 22 -13 43 -8 46 5 3 20 -25 33 -61 21 -60 40 -85 54 -72 3 3 -6
35 -20 71 -14 37 -21 69 -16 72 4 3 20 -29 35 -70 16 -42 32 -78 37 -81 21
-13 21 11 -1 69 -32 86 -35 97 -24 97 5 0 17 -25 28 -56 20 -58 33 -74 45 -55
4 7 -12 63 -36 124 -24 62 -43 119 -44 128 0 9 23 47 50 84 81 110 72 111 -77
5z"/>
<path d="M120 551 c0 -4 18 -21 41 -35 63 -42 37 -44 -30 -3 -32 21 -64 37
-70 37 -26 0 -7 -23 49 -59 34 -22 57 -42 52 -44 -4 -3 -38 14 -76 39 -62 40
-86 47 -86 25 0 -4 31 -28 70 -52 39 -24 70 -47 70 -52 0 -8 -30 5 -70 33 -39
26 -60 31 -60 14 0 -8 39 -40 88 -71 141 -91 142 -92 142 -190 0 -46 4 -83 9
-83 11 0 81 206 88 254 6 48 -28 91 -115 146 -75 48 -102 59 -102 41z"/>
<path d="M459 280 c-42 -12 -182 -121 -170 -133 7 -7 22 -1 45 16 37 28 46 32
46 19 0 -5 -25 -26 -55 -48 -51 -37 -70 -64 -43 -64 6 0 35 19 65 41 29 23 56
39 59 36 3 -3 -24 -29 -60 -57 -36 -29 -66 -55 -66 -59 0 -22 19 -15 82 31 38
28 71 48 74 45 3 -3 -17 -22 -45 -43 -28 -21 -51 -42 -51 -46 0 -25 31 -11
116 52 52 39 106 75 118 80 15 5 43 1 92 -16 107 -38 118 -28 38 32 -163 119
-186 130 -245 114z"/>
</g>
</svg>
